<svg xmlns="http://www.w3.org/2000/svg" viewBox="0 0 64 64" role="img" aria-label="Allegria">
  <defs>
    <linearGradient id="bg" x1="6" y1="6" x2="58" y2="58" gradientUnits="userSpaceOnUse">
      <stop stop-color="#14b8a6"/>
      <stop offset="1" stop-color="#0d9488"/>
    </linearGradient>
  </defs>
  <rect width="64" height="64" rx="16" fill="url(#bg)"/>
  <g transform="translate(8 8)">
    <path d="M24 7 C20 13 20 19 24 24 C28 19 28 13 24 7 Z" fill="#f59e0b" transform="rotate(12 24 7)"/>
    <path d="M24 7 C20 13 20 19 24 24 C28 19 28 13 24 7 Z" fill="#ffffff" transform="rotate(60 24 24) rotate(12 24 7)"/>
    <path d="M24 7 C20 13 20 19 24 24 C28 19 28 13 24 7 Z" fill="#ffffff" transform="rotate(120 24 24) rotate(12 24 7)"/>
    <path d="M24 7 C20 13 20 19 24 24 C28 19 28 13 24 7 Z" fill="#ffffff" transform="rotate(180 24 24) rotate(12 24 7)"/>
    <path d="M24 7 C20 13 20 19 24 24 C28 19 28 13 24 7 Z" fill="#ffffff" transform="rotate(240 24 24) rotate(12 24 7)"/>
    <path d="M24 7 C20 13 20 19 24 24 C28 19 28 13 24 7 Z" fill="#ffffff" transform="rotate(300 24 24) rotate(12 24 7)"/>
    <circle cx="24" cy="24" r="3.5" fill="#0d9488"/>
  </g>
</svg>
