<svg xmlns="http://www.w3.org/2000/svg" viewBox="0 0 300 64" fill="none" role="img" aria-label="Allegria Development">
  <!-- Bloom mark (pinwheel) -->
  <g transform="translate(8 8)">
    <path d="M24 7 C20 13 20 19 24 24 C28 19 28 13 24 7 Z" fill="#f59e0b" transform="rotate(12 24 7)"/>
    <path d="M24 7 C20 13 20 19 24 24 C28 19 28 13 24 7 Z" fill="#0d9488" transform="rotate(60 24 24) rotate(12 24 7)"/>
    <path d="M24 7 C20 13 20 19 24 24 C28 19 28 13 24 7 Z" fill="#14b8a6" transform="rotate(120 24 24) rotate(12 24 7)"/>
    <path d="M24 7 C20 13 20 19 24 24 C28 19 28 13 24 7 Z" fill="#0d9488" transform="rotate(180 24 24) rotate(12 24 7)"/>
    <path d="M24 7 C20 13 20 19 24 24 C28 19 28 13 24 7 Z" fill="#14b8a6" transform="rotate(240 24 24) rotate(12 24 7)"/>
    <path d="M24 7 C20 13 20 19 24 24 C28 19 28 13 24 7 Z" fill="#0d9488" transform="rotate(300 24 24) rotate(12 24 7)"/>
    <circle cx="24" cy="24" r="3.5" fill="#ffffff"/>
  </g>
  <!-- wordmark (renders in Manrope where available; falls back to a geometric sans) -->
  <text x="68" y="41" font-family="Manrope, 'Segoe UI', system-ui, sans-serif" font-size="29" font-weight="700" letter-spacing="-0.5" fill="#0f172a">Allegria<tspan dx="9" font-weight="500" fill="#475569">Development</tspan></text>
</svg>
