<svg xmlns="http://www.w3.org/2000/svg" viewBox="0 0 48 48" role="img" aria-label="Allegria">
  <path d="M24 7 C20 13 20 19 24 24 C28 19 28 13 24 7 Z" fill="#f59e0b" transform="rotate(12 24 7)"/>
  <path d="M24 7 C20 13 20 19 24 24 C28 19 28 13 24 7 Z" fill="#0d9488" transform="rotate(60 24 24) rotate(12 24 7)"/>
  <path d="M24 7 C20 13 20 19 24 24 C28 19 28 13 24 7 Z" fill="#14b8a6" transform="rotate(120 24 24) rotate(12 24 7)"/>
  <path d="M24 7 C20 13 20 19 24 24 C28 19 28 13 24 7 Z" fill="#0d9488" transform="rotate(180 24 24) rotate(12 24 7)"/>
  <path d="M24 7 C20 13 20 19 24 24 C28 19 28 13 24 7 Z" fill="#14b8a6" transform="rotate(240 24 24) rotate(12 24 7)"/>
  <path d="M24 7 C20 13 20 19 24 24 C28 19 28 13 24 7 Z" fill="#0d9488" transform="rotate(300 24 24) rotate(12 24 7)"/>
  <circle cx="24" cy="24" r="3.5" fill="#ffffff"/>
</svg>
